<svg width="30" height="30" viewBox="0 0 30 30" fill="none" xmlns="http://www.w3.org/2000/svg">
<path d="M21.0906 10.3922C20.9605 10.0551 20.7611 9.74897 20.5055 9.49358C20.2498 9.23818 19.9435 9.03918 19.6063 8.90937C19.1419 8.73738 18.6514 8.64647 18.1563 8.64062C17.3328 8.60312 17.0859 8.59375 15 8.59375C12.9141 8.59375 12.6672 8.60312 11.8438 8.64062C11.3481 8.6463 10.8571 8.7372 10.3922 8.90937C10.0551 9.03953 9.74897 9.23886 9.49358 9.49452C9.23819 9.75018 9.03919 10.0565 8.90938 10.3937C8.73739 10.8581 8.64648 11.3486 8.64063 11.8437C8.60313 12.6672 8.59375 12.9141 8.59375 15C8.59375 17.0859 8.60313 17.3328 8.64063 18.1562C8.6463 18.6519 8.73721 19.1429 8.90938 19.6078C9.03954 19.9449 9.23887 20.251 9.49453 20.5064C9.75019 20.7618 10.0565 20.9608 10.3938 21.0906C10.8581 21.2626 11.3486 21.3535 11.8438 21.3594C12.6672 21.3969 12.9141 21.4047 15 21.4047C17.0859 21.4047 17.3328 21.3969 18.1563 21.3578C18.6518 21.3526 19.1429 21.2623 19.6078 21.0906C19.9449 20.9605 20.251 20.7611 20.5064 20.5055C20.7618 20.2498 20.9608 19.9435 21.0906 19.6062C21.2626 19.1419 21.3535 18.6514 21.3594 18.1562C21.3969 17.3328 21.4047 17.0859 21.4047 15C21.4047 12.9141 21.3969 12.6672 21.3578 11.8437C21.3526 11.3482 21.2623 10.8571 21.0906 10.3922ZM15 19.0125C14.2064 19.0125 13.4306 18.7772 12.7708 18.3363C12.1109 17.8954 11.5966 17.2687 11.2929 16.5355C10.9892 15.8023 10.9098 14.9955 11.0646 14.2172C11.2194 13.4388 11.6016 12.7239 12.1627 12.1627C12.7239 11.6016 13.4389 11.2194 14.2172 11.0646C14.9956 10.9098 15.8023 10.9892 16.5355 11.2929C17.2687 11.5966 17.8954 12.1109 18.3363 12.7708C18.7772 13.4306 19.0125 14.2064 19.0125 15C19.0125 16.0642 18.5898 17.0848 17.8373 17.8373C17.0848 18.5898 16.0642 19.0125 15 19.0125ZM19.1703 11.7672C18.9849 11.7672 18.8036 11.7122 18.6495 11.6092C18.4953 11.5062 18.3751 11.3598 18.3042 11.1884C18.2332 11.0171 18.2147 10.8286 18.2508 10.6468C18.287 10.4649 18.3763 10.2979 18.5074 10.1668C18.6385 10.0357 18.8056 9.94637 18.9874 9.9102C19.1693 9.87402 19.3578 9.89259 19.5291 9.96355C19.7004 10.0345 19.8468 10.1547 19.9498 10.3088C20.0528 10.463 20.1078 10.6443 20.1078 10.8297C20.1078 11.0783 20.009 11.3168 19.8332 11.4926C19.6574 11.6684 19.419 11.7672 19.1703 11.7672ZM17.6047 15C17.6047 15.5152 17.4519 16.0187 17.1657 16.4471C16.8795 16.8754 16.4727 17.2093 15.9968 17.4064C15.5208 17.6036 14.9971 17.6551 14.4919 17.5546C13.9866 17.4541 13.5225 17.2061 13.1582 16.8418C12.7939 16.4775 12.5459 16.0134 12.4454 15.5081C12.3449 15.0029 12.3964 14.4792 12.5936 14.0032C12.7907 13.5273 13.1246 13.1205 13.5529 12.8343C13.9813 12.5481 14.4848 12.3953 15 12.3953C15.6908 12.3953 16.3533 12.6697 16.8418 13.1582C17.3303 13.6467 17.6047 14.3092 17.6047 15ZM15 0C12.0333 0 9.13319 0.879734 6.66645 2.52796C4.19972 4.17618 2.27713 6.51885 1.14181 9.25975C0.00649917 12.0006 -0.290551 15.0166 0.288227 17.9263C0.867006 20.8361 2.29562 23.5088 4.3934 25.6066C6.49119 27.7044 9.16393 29.133 12.0736 29.7118C14.9834 30.2905 17.9994 29.9935 20.7403 28.8582C23.4811 27.7229 25.8238 25.8003 27.472 23.3335C29.1203 20.8668 30 17.9667 30 15C30 11.0217 28.4196 7.20644 25.6066 4.3934C22.7936 1.58035 18.9783 0 15 0ZM22.7656 18.2203C22.7524 18.8686 22.6293 19.51 22.4016 20.1172C22.2009 20.6361 21.894 21.1073 21.5007 21.5007C21.1073 21.894 20.6361 22.2009 20.1172 22.4016C19.5105 22.6291 18.8697 22.7522 18.2219 22.7656C17.3875 22.8031 17.1219 22.8125 15 22.8125C12.8781 22.8125 12.6125 22.8031 11.7781 22.7656C11.1303 22.7522 10.4895 22.6291 9.88282 22.4016C9.36395 22.2009 8.89272 21.894 8.49934 21.5007C8.10596 21.1073 7.79911 20.6361 7.59844 20.1172C7.37088 19.5105 7.24779 18.8697 7.23438 18.2219C7.19688 17.3875 7.18751 17.1219 7.18751 15C7.18751 12.8781 7.19688 12.6125 7.23438 11.7781C7.24728 11.1304 7.36985 10.4896 7.59688 9.88281C7.79753 9.3635 8.10455 8.89187 8.49821 8.49821C8.89188 8.10454 9.3635 7.79753 9.88282 7.59687C10.4896 7.36985 11.1304 7.24728 11.7781 7.23437C12.6125 7.19687 12.8781 7.1875 15 7.1875C17.1219 7.1875 17.3875 7.19687 18.2219 7.23437C18.8696 7.24728 19.5104 7.36985 20.1172 7.59687C20.6362 7.79771 21.1075 8.1048 21.5009 8.49846C21.8943 8.89212 22.2011 9.36365 22.4016 9.88281C22.6291 10.4895 22.7522 11.1303 22.7656 11.7781C22.8031 12.6125 22.8125 12.8781 22.8125 15C22.8125 17.1219 22.8031 17.3859 22.7656 18.2203Z" fill="black"/>
</svg>
