<svg width="30" height="30" viewBox="0 0 30 30" fill="none" xmlns="http://www.w3.org/2000/svg">
<g clip-path="url(#clip0_524_353)">
<path d="M14.9995 0.0191033C18.9828 0.0369046 22.7991 1.61781 25.6234 4.42008C27.9463 6.76534 29.4374 9.80355 29.8697 13.0722C30.302 16.3409 29.6519 19.6609 28.0183 22.527C26.7053 24.8104 24.8083 26.7053 22.521 28.0182C20.2338 29.331 17.6383 30.0148 14.9995 29.9996C13.5569 30.0096 12.1202 29.8161 10.7319 29.4248C11.4882 28.2033 11.9924 27.1076 12.2625 26.1914L13.3249 22.0779C13.577 22.5808 14.0632 23.012 14.7654 23.3892C15.4857 23.7484 16.2059 23.946 16.9982 23.946C18.5648 23.946 19.9693 23.497 21.2118 22.5988C22.489 21.6545 23.4848 20.3817 24.0928 18.9164C24.7885 17.2499 25.1318 15.4581 25.1012 13.6531C25.1012 11.3179 24.2009 9.32403 22.4182 7.61752C21.5046 6.75928 20.4294 6.09033 19.2549 5.64941C18.0804 5.20848 16.8298 5.00434 15.5757 5.04879C13.9011 5.04879 12.3345 5.3362 10.93 5.91102C9.1873 6.57169 7.68037 7.73349 6.6001 9.24925C5.51984 10.765 4.91485 12.5665 4.86178 14.4256C4.86178 15.7728 5.11387 16.9584 5.63606 17.9823C6.14025 18.9882 6.89653 19.7067 7.9229 20.1379C8.10297 20.2097 8.26503 20.2097 8.39107 20.1379C8.51712 20.084 8.60715 19.9582 8.66117 19.7786L8.98529 18.5571C9.07532 18.2876 9.0213 18.0182 8.78722 17.7488C8.08501 16.9381 7.71809 15.8913 7.76084 14.8208C7.74508 13.8497 7.92879 12.8858 8.30066 11.9883C8.67254 11.0908 9.22469 10.2788 9.9231 9.60222C10.6215 8.92569 11.4514 8.39898 12.3616 8.05456C13.2718 7.71014 14.2431 7.55529 15.2156 7.59956C17.1783 7.59956 18.7089 8.13846 19.7892 9.19828C20.8876 10.2761 21.4459 11.6592 21.4459 13.3657C21.4459 14.8028 21.2478 16.1321 20.8516 17.3356C20.5334 18.4247 19.9593 19.4223 19.177 20.2456C18.4568 20.9642 17.6104 21.3234 16.6561 21.3234C15.8818 21.3234 15.2516 21.054 14.7474 20.4792C14.2612 19.9043 14.0992 19.2217 14.2792 18.4493C14.5541 17.4892 14.8362 16.5311 15.1255 15.5752L15.4497 14.2639C15.5577 13.7969 15.6117 13.4196 15.6117 13.0963C15.6117 12.4496 15.4317 11.9107 15.1075 11.4976C14.7474 11.0844 14.2612 10.8689 13.613 10.8689C12.8027 10.8689 12.1184 11.2281 11.5782 11.9826C11.038 12.7191 10.7499 13.6531 10.7499 14.7848C10.7589 15.4853 10.8681 16.1809 11.0741 16.8506L11.1821 17.12C10.1017 21.7545 9.47147 24.4849 9.23738 25.2753C9.0213 26.2633 8.94928 27.4309 9.0033 28.7602C6.33303 27.5811 4.06199 25.6561 2.46436 23.2176C0.866735 20.7791 0.0108364 17.9314 0 15.0183C0 10.8868 1.45853 7.33011 4.39361 4.42008C5.76537 3.00021 7.41408 1.87563 9.23812 1.11564C11.0622 0.355656 13.0229 -0.0236372 14.9995 0.00114018V0.0191033Z" fill="black"/>
</g>
<defs>
<clipPath id="clip0_524_353">
<rect width="30" height="30" fill="white"/>
</clipPath>
</defs>
</svg>

